Coordinates
version=1
nRows=37
nColumns=11
inDegrees=yes

Units are S.I. units (second, meters, Newtons, ...)
If the header above contains a line with 'inDegrees', this indicates whether rotational values are in degrees (yes) or radians (no).

endheader
time	pelvis_tilt	pelvis_tx	pelvis_ty	hip_flexion_l	hip_flexion_r	knee_angle_l	knee_angle_r	ankle_angle_l	ankle_angle_r	lumbar_extension
      1.65000000	      4.42313836	     -1.44872563	      0.88784136	     -6.70186117	     22.40601959	    -32.62214279	    -13.29364987	     22.62100642	     -7.17762172	    -11.31413617
      1.66000000	      4.59553759	     -1.43553422	      0.88704709	     -7.61500782	     22.05416419	    -32.85476634	    -13.41420359	     21.87008572	     -7.46967002	    -11.10262788
      1.67000000	      4.39061002	     -1.42282470	      0.88546081	     -7.92168872	     22.14141492	    -33.42810781	    -14.03276598	     21.19499202	     -7.38690558	    -10.52566859
      1.68000000	      4.21643985	     -1.41033211	      0.88392770	     -8.16060981	     22.18542266	    -34.13044250	    -14.82391115	     20.38467504	     -7.31833163	    -10.05045145
      1.69000000	      3.95531159	     -1.39739673	      0.88211899	     -8.28152848	     22.10497653	    -34.91722690	    -15.81444529	     19.39656422	     -6.94685438	     -9.39949126
      1.70000000	      3.63590621	     -1.38418040	      0.88110015	     -8.39052698	     22.13014648	    -35.52915665	    -16.69262886	     18.00707283	     -8.46478737	     -8.66875952
      1.71000000	      2.74369740	     -1.37197633	      0.87948490	     -7.59825781	     23.33614506	    -36.51818355	    -18.59858678	     16.78072918	     -7.99287500	     -7.42420494
      1.72000000	      2.18411470	     -1.35926566	      0.87900150	     -7.18276816	     24.40736022	    -37.34975394	    -21.04115090	     14.78538446	     -6.87412993	     -6.52690845
      1.73000000	      1.86632510	     -1.34623604	      0.87924381	     -7.03948956	     24.94714087	    -38.16944863	    -22.98892138	     12.81316587	     -6.57658813	     -5.88485225
      1.74000000	      1.49418371	     -1.33364970	      0.87929336	     -6.51345605	     25.32498803	    -39.45587530	    -24.55423208	     10.45529377	     -5.74543818	     -5.23781259
      1.75000000	      1.27900506	     -1.32104488	      0.87988699	     -6.05529232	     25.22934686	    -40.71711676	    -25.53719773	      7.71504143	     -5.09367758	     -4.80592072
      1.76000000	      1.13736995	     -1.30861295	      0.88070404	     -5.51855824	     24.86696748	    -42.07852952	    -26.21396168	      4.33131559	     -4.12594406	     -4.51285997
      1.77000000	      0.88599783	     -1.29627474	      0.88132252	     -4.76174924	     24.58646468	    -43.41642403	    -26.83425897	      1.10900536	     -2.99650155	     -4.10911368
      1.78000000	      0.57471916	     -1.28405383	      0.88190436	     -3.91427234	     24.30775608	    -44.91203564	    -27.34478042	     -1.62992951	     -1.95820797	     -3.67480484
      1.79000000	      0.21341725	     -1.27216034	      0.88249476	     -2.90208349	     24.06162630	    -46.26461759	    -27.79356451	     -4.84935118	     -0.92911884	     -3.21356860
      1.80000000	     -0.04118609	     -1.26056039	      0.88318679	     -1.92390145	     23.71204197	    -47.86280589	    -28.24141031	     -7.32888872	      0.16476697	     -2.94962977
      1.81000000	     -0.60111358	     -1.24946283	      0.88337602	     -0.41092393	     23.67252270	    -49.78736387	    -28.58141328	     -9.08095667	      0.97023910	     -2.35835467
      1.82000000	     -0.86355011	     -1.23828666	      0.88424576	      0.78074507	     23.15741298	    -51.72953362	    -28.59510324	    -10.19650899	      1.69506775	     -2.11749924
      1.83000000	     -1.27132667	     -1.22759181	      0.88493567	      2.29080910	     22.74494746	    -53.64461414	    -28.51191814	    -10.50920529	      2.37940884	     -1.75625563
      1.84000000	     -1.76941737	     -1.21789324	      0.88561352	      4.05268638	     22.44174805	    -55.48082925	    -28.25779263	     -9.63492581	      2.89057223	     -1.43159305
      1.85000000	     -2.21296411	     -1.20763507	      0.88662378	      5.70174476	     21.91473512	    -56.91591904	    -27.77295578	     -8.27620010	      3.31336080	     -1.02580903
      1.86000000	     -2.70165118	     -1.19766182	      0.88789881	      7.42250647	     21.35302596	    -58.08028375	    -27.10101569	     -7.08453998	      3.58899066	     -0.62148322
      1.87000000	     -3.02595815	     -1.18750519	      0.88932766	      8.98139630	     20.63612030	    -59.00109842	    -26.54602242	     -6.29953398	      4.02365608	     -0.33470962
      1.88000000	     -3.11288199	     -1.17692249	      0.89128809	     10.22536003	     19.48473294	    -59.63115880	    -25.64581091	     -5.51807429	      4.32854297	     -0.27566539
      1.89000000	     -3.34758914	     -1.16682662	      0.89277005	     11.74660882	     18.65029384	    -60.24375008	    -24.98672042	     -4.97469566	      4.52264652	     -0.06546818
      1.90000000	     -3.51608218	     -1.15693299	      0.89432107	     13.24591563	     17.68888200	    -60.74774374	    -24.17884365	     -4.38677252	      4.70780175	      0.03592881
      1.91000000	     -3.64190262	     -1.14708905	      0.89567402	     14.75076926	     16.79762591	    -61.20947945	    -23.58252727	     -3.73308469	      4.92945280	      0.10384300
      1.92000000	     -3.82908553	     -1.13774647	      0.89679533	     16.41481210	     15.99394150	    -61.63895385	    -22.94407908	     -2.83129211	      5.13416954	      0.17674028
      1.93000000	     -3.94126729	     -1.12846353	      0.89791070	     18.02231689	     15.18500735	    -61.94406253	    -22.44502866	     -2.27111014	      5.26840711	      0.15533405
      1.94000000	     -3.99179411	     -1.11921321	      0.89905656	     19.58306064	     14.26744766	    -62.11410361	    -21.85731279	     -1.33427076	      5.38767789	      0.06732990
      1.95000000	     -4.11248165	     -1.11036376	      0.89973321	     21.28004358	     13.60203278	    -62.31087181	    -21.55371189	     -0.54979851	      5.54185181	     -0.00913881
      1.96000000	     -3.93297993	     -1.10084907	      0.90088074	     22.55530569	     12.47647076	    -62.17858686	    -21.02165638	      0.10741414	      5.50317159	     -0.34753136
      1.97000000	     -3.91259370	     -1.09185530	      0.90150801	     24.04583085	     11.73332412	    -62.15595778	    -20.85535188	      0.55812079	      5.62861090	     -0.53550247
      1.98000000	     -3.80535624	     -1.08279927	      0.90210897	     25.43210833	     10.90271052	    -61.93141242	    -20.64005870	      1.06076930	      5.65714629	     -0.81180111
      1.99000000	     -3.67816487	     -1.07359486	      0.90264895	     26.75514782	     10.06189903	    -61.52301729	    -20.55945639	      1.37675154	      5.93532516	     -1.07963523
      2.00000000	     -3.62410780	     -1.06468812	      0.90292356	     28.15822315	      9.40383305	    -61.07710948	    -20.59621459	      2.08708398	      5.93064297	     -1.30121638
      2.01000000	     -3.45313602	     -1.05540144	      0.90325660	     29.33678949	      8.55548380	    -60.34259123	    -20.57476113	      2.28830606	      6.06690339	     -1.58817088
